<svg xmlns="http://www.w3.org/2000/svg" width="980" height="1610" viewBox="0 0 980 1610">
<rect width="100%" height="100%" fill="#ffffff"/>
<text x="490.0" y="36" text-anchor="middle" font-family="Arial, sans-serif" font-size="24" font-weight="700">Model Stats Comparison</text>
<rect x="190" y="54" width="14" height="14" fill="#2563eb" rx="2"/>
<text x="212" y="66" font-family="Arial, sans-serif" font-size="13" fill="#222">PR AUC</text>
<rect x="262" y="54" width="14" height="14" fill="#16a34a" rx="2"/>
<text x="284" y="66" font-family="Arial, sans-serif" font-size="13" fill="#222">Accuracy</text>
<line x1="190" y1="90" x2="190" y2="1520" stroke="#222" stroke-width="1"/>
<line x1="190" y1="1520" x2="930" y2="1520" stroke="#222" stroke-width="1"/>
<line x1="190.0" y1="90" x2="190.0" y2="1520" stroke="#eeeeee" stroke-width="1"/>
<text x="190.0" y="1544" text-anchor="middle" font-family="Arial, sans-serif" font-size="12" fill="#444">0.0</text>
<line x1="264.0" y1="90" x2="264.0" y2="1520" stroke="#eeeeee" stroke-width="1"/>
<text x="264.0" y="1544" text-anchor="middle" font-family="Arial, sans-serif" font-size="12" fill="#444">0.1</text>
<line x1="338.0" y1="90" x2="338.0" y2="1520" stroke="#eeeeee" stroke-width="1"/>
<text x="338.0" y="1544" text-anchor="middle" font-family="Arial, sans-serif" font-size="12" fill="#444">0.2</text>
<line x1="412.0" y1="90" x2="412.0" y2="1520" stroke="#eeeeee" stroke-width="1"/>
<text x="412.0" y="1544" text-anchor="middle" font-family="Arial, sans-serif" font-size="12" fill="#444">0.3</text>
<line x1="486.0" y1="90" x2="486.0" y2="1520" stroke="#eeeeee" stroke-width="1"/>
<text x="486.0" y="1544" text-anchor="middle" font-family="Arial, sans-serif" font-size="12" fill="#444">0.4</text>
<line x1="560.0" y1="90" x2="560.0" y2="1520" stroke="#eeeeee" stroke-width="1"/>
<text x="560.0" y="1544" text-anchor="middle" font-family="Arial, sans-serif" font-size="12" fill="#444">0.5</text>
<line x1="634.0" y1="90" x2="634.0" y2="1520" stroke="#eeeeee" stroke-width="1"/>
<text x="634.0" y="1544" text-anchor="middle" font-family="Arial, sans-serif" font-size="12" fill="#444">0.6</text>
<line x1="708.0" y1="90" x2="708.0" y2="1520" stroke="#eeeeee" stroke-width="1"/>
<text x="708.0" y="1544" text-anchor="middle" font-family="Arial, sans-serif" font-size="12" fill="#444">0.7</text>
<line x1="782.0" y1="90" x2="782.0" y2="1520" stroke="#eeeeee" stroke-width="1"/>
<text x="782.0" y="1544" text-anchor="middle" font-family="Arial, sans-serif" font-size="12" fill="#444">0.8</text>
<line x1="856.0" y1="90" x2="856.0" y2="1520" stroke="#eeeeee" stroke-width="1"/>
<text x="856.0" y="1544" text-anchor="middle" font-family="Arial, sans-serif" font-size="12" fill="#444">0.9</text>
<line x1="930.0" y1="90" x2="930.0" y2="1520" stroke="#eeeeee" stroke-width="1"/>
<text x="930.0" y="1544" text-anchor="middle" font-family="Arial, sans-serif" font-size="12" fill="#444">1.0</text>
<text x="176" y="142.7" text-anchor="end" font-family="Arial, sans-serif" font-size="14" fill="#222">encoder_head</text>
<rect x="190" y="107.0" width="291.1" height="26.7" fill="#2563eb" rx="4"/>
<text x="489.1" y="125.3" font-family="Arial, sans-serif" font-size="13" fill="#222">0.3934</text>
<rect x="190" y="141.7" width="593.8" height="26.7" fill="#16a34a" rx="4"/>
<text x="791.8" y="160.0" font-family="Arial, sans-serif" font-size="13" fill="#222">0.8024</text>
<text x="176" y="238.0" text-anchor="end" font-family="Arial, sans-serif" font-size="14" fill="#222">encoder_head_spans</text>
<rect x="190" y="202.3" width="285.0" height="26.7" fill="#2563eb" rx="4"/>
<text x="483.0" y="220.7" font-family="Arial, sans-serif" font-size="13" fill="#222">0.3851</text>
<rect x="190" y="237.0" width="529.7" height="26.7" fill="#16a34a" rx="4"/>
<text x="727.7" y="255.3" font-family="Arial, sans-serif" font-size="13" fill="#222">0.7159</text>
<text x="176" y="333.3" text-anchor="end" font-family="Arial, sans-serif" font-size="14" fill="#222">LLM_LoRA</text>
<rect x="190" y="297.6" width="271.6" height="26.7" fill="#2563eb" rx="4"/>
<text x="469.6" y="316.0" font-family="Arial, sans-serif" font-size="13" fill="#222">0.3671</text>
<rect x="190" y="332.3" width="594.6" height="26.7" fill="#16a34a" rx="4"/>
<text x="792.6" y="350.7" font-family="Arial, sans-serif" font-size="13" fill="#222">0.8036</text>
<text x="176" y="428.7" text-anchor="end" font-family="Arial, sans-serif" font-size="14" fill="#222">LLM_LoRA_spans</text>
<rect x="190" y="393.0" width="261.0" height="26.7" fill="#2563eb" rx="4"/>
<text x="459.0" y="411.3" font-family="Arial, sans-serif" font-size="13" fill="#222">0.3527</text>
<rect x="190" y="427.7" width="551.9" height="26.7" fill="#16a34a" rx="4"/>
<text x="749.9" y="446.0" font-family="Arial, sans-serif" font-size="13" fill="#222">0.7458</text>
<text x="176" y="524.0" text-anchor="end" font-family="Arial, sans-serif" font-size="14" fill="#222">LLM_train_head</text>
<rect x="190" y="488.3" width="267.5" height="26.7" fill="#2563eb" rx="4"/>
<text x="465.5" y="506.7" font-family="Arial, sans-serif" font-size="13" fill="#222">0.3614</text>
<rect x="190" y="523.0" width="576.6" height="26.7" fill="#16a34a" rx="4"/>
<text x="774.6" y="541.3" font-family="Arial, sans-serif" font-size="13" fill="#222">0.7791</text>
<text x="176" y="619.3" text-anchor="end" font-family="Arial, sans-serif" font-size="14" fill="#222">LLM_train_head_spans</text>
<rect x="190" y="583.6" width="269.3" height="26.7" fill="#2563eb" rx="4"/>
<text x="467.3" y="602.0" font-family="Arial, sans-serif" font-size="13" fill="#222">0.3639</text>
<rect x="190" y="618.3" width="551.9" height="26.7" fill="#16a34a" rx="4"/>
<text x="749.9" y="636.7" font-family="Arial, sans-serif" font-size="13" fill="#222">0.7458</text>
<text x="176" y="714.7" text-anchor="end" font-family="Arial, sans-serif" font-size="14" fill="#222">majority_voting</text>
<rect x="190" y="679.0" width="150.3" height="26.7" fill="#2563eb" rx="4"/>
<text x="348.3" y="697.3" font-family="Arial, sans-serif" font-size="13" fill="#222">0.2031</text>
<rect x="190" y="713.7" width="589.7" height="26.7" fill="#16a34a" rx="4"/>
<text x="787.7" y="732.0" font-family="Arial, sans-serif" font-size="13" fill="#222">0.7969</text>
<text x="176" y="810.0" text-anchor="end" font-family="Arial, sans-serif" font-size="14" fill="#222">naive_bayes</text>
<rect x="190" y="774.3" width="217.4" height="26.7" fill="#2563eb" rx="4"/>
<text x="415.4" y="792.7" font-family="Arial, sans-serif" font-size="13" fill="#222">0.2937</text>
<rect x="190" y="809.0" width="542.9" height="26.7" fill="#16a34a" rx="4"/>
<text x="740.9" y="827.3" font-family="Arial, sans-serif" font-size="13" fill="#222">0.7336</text>
<text x="176" y="905.3" text-anchor="end" font-family="Arial, sans-serif" font-size="14" fill="#222">naive_bayes_spans</text>
<rect x="190" y="869.6" width="207.6" height="26.7" fill="#2563eb" rx="4"/>
<text x="405.6" y="888.0" font-family="Arial, sans-serif" font-size="13" fill="#222">0.2806</text>
<rect x="190" y="904.3" width="542.9" height="26.7" fill="#16a34a" rx="4"/>
<text x="740.9" y="922.7" font-family="Arial, sans-serif" font-size="13" fill="#222">0.7336</text>
<text x="176" y="1000.7" text-anchor="end" font-family="Arial, sans-serif" font-size="14" fill="#222">tfidf_logistic_regression</text>
<rect x="190" y="965.0" width="256.0" height="26.7" fill="#2563eb" rx="4"/>
<text x="454.0" y="983.3" font-family="Arial, sans-serif" font-size="13" fill="#222">0.3459</text>
<rect x="190" y="999.7" width="584.8" height="26.7" fill="#16a34a" rx="4"/>
<text x="782.8" y="1018.0" font-family="Arial, sans-serif" font-size="13" fill="#222">0.7902</text>
<text x="176" y="1096.0" text-anchor="end" font-family="Arial, sans-serif" font-size="14" fill="#222">tfidf_logistic_regression_spans</text>
<rect x="190" y="1060.3" width="232.5" height="26.7" fill="#2563eb" rx="4"/>
<text x="430.5" y="1078.7" font-family="Arial, sans-serif" font-size="13" fill="#222">0.3142</text>
<rect x="190" y="1095.0" width="574.1" height="26.7" fill="#16a34a" rx="4"/>
<text x="772.1" y="1113.3" font-family="Arial, sans-serif" font-size="13" fill="#222">0.7758</text>
<text x="176" y="1191.3" text-anchor="end" font-family="Arial, sans-serif" font-size="14" fill="#222">tfidf_random_forest</text>
<rect x="190" y="1155.6" width="251.6" height="26.7" fill="#2563eb" rx="4"/>
<text x="449.6" y="1174.0" font-family="Arial, sans-serif" font-size="13" fill="#222">0.3400</text>
<rect x="190" y="1190.3" width="594.6" height="26.7" fill="#16a34a" rx="4"/>
<text x="792.6" y="1208.7" font-family="Arial, sans-serif" font-size="13" fill="#222">0.8036</text>
<text x="176" y="1286.7" text-anchor="end" font-family="Arial, sans-serif" font-size="14" fill="#222">tfidf_random_forest_spans</text>
<rect x="190" y="1251.0" width="239.4" height="26.7" fill="#2563eb" rx="4"/>
<text x="437.4" y="1269.3" font-family="Arial, sans-serif" font-size="13" fill="#222">0.3235</text>
<rect x="190" y="1285.7" width="586.4" height="26.7" fill="#16a34a" rx="4"/>
<text x="784.4" y="1304.0" font-family="Arial, sans-serif" font-size="13" fill="#222">0.7925</text>
<text x="176" y="1382.0" text-anchor="end" font-family="Arial, sans-serif" font-size="14" fill="#222">tfidf_xgboost</text>
<rect x="190" y="1346.3" width="282.6" height="26.7" fill="#2563eb" rx="4"/>
<text x="480.6" y="1364.7" font-family="Arial, sans-serif" font-size="13" fill="#222">0.3819</text>
<rect x="190" y="1381.0" width="596.3" height="26.7" fill="#16a34a" rx="4"/>
<text x="794.3" y="1399.3" font-family="Arial, sans-serif" font-size="13" fill="#222">0.8058</text>
<text x="176" y="1477.3" text-anchor="end" font-family="Arial, sans-serif" font-size="14" fill="#222">tfidf_xgboost_spans</text>
<rect x="190" y="1441.6" width="257.8" height="26.7" fill="#2563eb" rx="4"/>
<text x="455.8" y="1460.0" font-family="Arial, sans-serif" font-size="13" fill="#222">0.3483</text>
<rect x="190" y="1476.3" width="449.3" height="26.7" fill="#16a34a" rx="4"/>
<text x="647.3" y="1494.7" font-family="Arial, sans-serif" font-size="13" fill="#222">0.6071</text>
</svg>